<svg width="100" height="100" viewBox="0 0 100 100" fill="none" xmlns="http://www.w3.org/2000/svg">
<path d="M100 0H0V100H100V0Z" fill="white"/>
<path d="M9.5 6.5H6.5V9.5H9.5V6.5Z" fill="black"/>
<path d="M12.5 6.5H9.5V9.5H12.5V6.5Z" fill="black"/>
<path d="M15.5 6.5H12.5V9.5H15.5V6.5Z" fill="black"/>
<path d="M18.5 6.5H15.5V9.5H18.5V6.5Z" fill="black"/>
<path d="M21.5 6.5H18.5V9.5H21.5V6.5Z" fill="black"/>
<path d="M24.5 6.5H21.5V9.5H24.5V6.5Z" fill="black"/>
<path d="M27.5 6.5H24.5V9.5H27.5V6.5Z" fill="black"/>
<path d="M42.5 6.5H39.5V9.5H42.5V6.5Z" fill="black"/>
<path d="M45.5 6.5H42.5V9.5H45.5V6.5Z" fill="black"/>
<path d="M54.5 6.5H51.5V9.5H54.5V6.5Z" fill="black"/>
<path d="M57.5 6.5H54.5V9.5H57.5V6.5Z" fill="black"/>
<path d="M63.5 6.5H60.5V9.5H63.5V6.5Z" fill="black"/>
<path d="M69.5 6.5H66.5V9.5H69.5V6.5Z" fill="black"/>
<path d="M75.5 6.5H72.5V9.5H75.5V6.5Z" fill="black"/>
<path d="M78.5 6.5H75.5V9.5H78.5V6.5Z" fill="black"/>
<path d="M81.5 6.5H78.5V9.5H81.5V6.5Z" fill="black"/>
<path d="M84.5 6.5H81.5V9.5H84.5V6.5Z" fill="black"/>
<path d="M87.5 6.5H84.5V9.5H87.5V6.5Z" fill="black"/>
<path d="M90.5 6.5H87.5V9.5H90.5V6.5Z" fill="black"/>
<path d="M93.5 6.5H90.5V9.5H93.5V6.5Z" fill="black"/>
<path d="M9.5 9.5H6.5V12.5H9.5V9.5Z" fill="black"/>
<path d="M27.5 9.5H24.5V12.5H27.5V9.5Z" fill="black"/>
<path d="M36.5 9.5H33.5V12.5H36.5V9.5Z" fill="black"/>
<path d="M39.5 9.5H36.5V12.5H39.5V9.5Z" fill="black"/>
<path d="M48.5 9.5H45.5V12.5H48.5V9.5Z" fill="black"/>
<path d="M51.5 9.5H48.5V12.5H51.5V9.5Z" fill="black"/>
<path d="M57.5 9.5H54.5V12.5H57.5V9.5Z" fill="black"/>
<path d="M60.5 9.5H57.5V12.5H60.5V9.5Z" fill="black"/>
<path d="M69.5 9.5H66.5V12.5H69.5V9.5Z" fill="black"/>
<path d="M75.5 9.5H72.5V12.5H75.5V9.5Z" fill="black"/>
<path d="M93.5 9.5H90.5V12.5H93.5V9.5Z" fill="black"/>
<path d="M9.5 12.5H6.5V15.5H9.5V12.5Z" fill="black"/>
<path d="M15.5 12.5H12.5V15.5H15.5V12.5Z" fill="black"/>
<path d="M18.5 12.5H15.5V15.5H18.5V12.5Z" fill="black"/>
<path d="M21.5 12.5H18.5V15.5H21.5V12.5Z" fill="black"/>
<path d="M27.5 12.5H24.5V15.5H27.5V12.5Z" fill="black"/>
<path d="M45.5 12.5H42.5V15.5H45.5V12.5Z" fill="black"/>
<path d="M48.5 12.5H45.5V15.5H48.5V12.5Z" fill="black"/>
<path d="M54.5 12.5H51.5V15.5H54.5V12.5Z" fill="black"/>
<path d="M63.5 12.5H60.5V15.5H63.5V12.5Z" fill="black"/>
<path d="M69.5 12.5H66.5V15.5H69.5V12.5Z" fill="black"/>
<path d="M75.5 12.5H72.5V15.5H75.5V12.5Z" fill="black"/>
<path d="M81.5 12.5H78.5V15.5H81.5V12.5Z" fill="black"/>
<path d="M84.5 12.5H81.5V15.5H84.5V12.5Z" fill="black"/>
<path d="M87.5 12.5H84.5V15.5H87.5V12.5Z" fill="black"/>
<path d="M93.5 12.5H90.5V15.5H93.5V12.5Z" fill="black"/>
<path d="M9.5 15.5H6.5V18.5H9.5V15.5Z" fill="black"/>
<path d="M15.5 15.5H12.5V18.5H15.5V15.5Z" fill="black"/>
<path d="M18.5 15.5H15.5V18.5H18.5V15.5Z" fill="black"/>
<path d="M21.5 15.5H18.5V18.5H21.5V15.5Z" fill="black"/>
<path d="M27.5 15.5H24.5V18.5H27.5V15.5Z" fill="black"/>
<path d="M33.5 15.5H30.5V18.5H33.5V15.5Z" fill="black"/>
<path d="M45.5 15.5H42.5V18.5H45.5V15.5Z" fill="black"/>
<path d="M57.5 15.5H54.5V18.5H57.5V15.5Z" fill="black"/>
<path d="M60.5 15.5H57.5V18.5H60.5V15.5Z" fill="black"/>
<path d="M69.5 15.5H66.5V18.5H69.5V15.5Z" fill="black"/>
<path d="M75.5 15.5H72.5V18.5H75.5V15.5Z" fill="black"/>
<path d="M81.5 15.5H78.5V18.5H81.5V15.5Z" fill="black"/>
<path d="M84.5 15.5H81.5V18.5H84.5V15.5Z" fill="black"/>
<path d="M87.5 15.5H84.5V18.5H87.5V15.5Z" fill="black"/>
<path d="M93.5 15.5H90.5V18.5H93.5V15.5Z" fill="black"/>
<path d="M9.5 18.5H6.5V21.5H9.5V18.5Z" fill="black"/>
<path d="M15.5 18.5H12.5V21.5H15.5V18.5Z" fill="black"/>
<path d="M18.5 18.5H15.5V21.5H18.5V18.5Z" fill="black"/>
<path d="M21.5 18.5H18.5V21.5H21.5V18.5Z" fill="black"/>
<path d="M27.5 18.5H24.5V21.5H27.5V18.5Z" fill="black"/>
<path d="M33.5 18.5H30.5V21.5H33.5V18.5Z" fill="black"/>
<path d="M36.5 18.5H33.5V21.5H36.5V18.5Z" fill="black"/>
<path d="M54.5 18.5H51.5V21.5H54.5V18.5Z" fill="black"/>
<path d="M57.5 18.5H54.5V21.5H57.5V18.5Z" fill="black"/>
<path d="M66.5 18.5H63.5V21.5H66.5V18.5Z" fill="black"/>
<path d="M69.5 18.5H66.5V21.5H69.5V18.5Z" fill="black"/>
<path d="M75.5 18.5H72.5V21.5H75.5V18.5Z" fill="black"/>
<path d="M81.5 18.5H78.5V21.5H81.5V18.5Z" fill="black"/>
<path d="M84.5 18.5H81.5V21.5H84.5V18.5Z" fill="black"/>
<path d="M87.5 18.5H84.5V21.5H87.5V18.5Z" fill="black"/>
<path d="M93.5 18.5H90.5V21.5H93.5V18.5Z" fill="black"/>
<path d="M9.5 21.5H6.5V24.5H9.5V21.5Z" fill="black"/>
<path d="M27.5 21.5H24.5V24.5H27.5V21.5Z" fill="black"/>
<path d="M42.5 21.5H39.5V24.5H42.5V21.5Z" fill="black"/>
<path d="M45.5 21.5H42.5V24.5H45.5V21.5Z" fill="black"/>
<path d="M54.5 21.5H51.5V24.5H54.5V21.5Z" fill="black"/>
<path d="M60.5 21.5H57.5V24.5H60.5V21.5Z" fill="black"/>
<path d="M75.5 21.5H72.5V24.5H75.5V21.5Z" fill="black"/>
<path d="M93.5 21.5H90.5V24.5H93.5V21.5Z" fill="black"/>
<path d="M9.5 24.5H6.5V27.5H9.5V24.5Z" fill="black"/>
<path d="M12.5 24.5H9.5V27.5H12.5V24.5Z" fill="black"/>
<path d="M15.5 24.5H12.5V27.5H15.5V24.5Z" fill="black"/>
<path d="M18.5 24.5H15.5V27.5H18.5V24.5Z" fill="black"/>
<path d="M21.5 24.5H18.5V27.5H21.5V24.5Z" fill="black"/>
<path d="M24.5 24.5H21.5V27.5H24.5V24.5Z" fill="black"/>
<path d="M27.5 24.5H24.5V27.5H27.5V24.5Z" fill="black"/>
<path d="M33.5 24.5H30.5V27.5H33.5V24.5Z" fill="black"/>
<path d="M39.5 24.5H36.5V27.5H39.5V24.5Z" fill="black"/>
<path d="M45.5 24.5H42.5V27.5H45.5V24.5Z" fill="black"/>
<path d="M51.5 24.5H48.5V27.5H51.5V24.5Z" fill="black"/>
<path d="M57.5 24.5H54.5V27.5H57.5V24.5Z" fill="black"/>
<path d="M63.5 24.5H60.5V27.5H63.5V24.5Z" fill="black"/>
<path d="M69.5 24.5H66.5V27.5H69.5V24.5Z" fill="black"/>
<path d="M75.5 24.5H72.5V27.5H75.5V24.5Z" fill="black"/>
<path d="M78.5 24.5H75.5V27.5H78.5V24.5Z" fill="black"/>
<path d="M81.5 24.5H78.5V27.5H81.5V24.5Z" fill="black"/>
<path d="M84.5 24.5H81.5V27.5H84.5V24.5Z" fill="black"/>
<path d="M87.5 24.5H84.5V27.5H87.5V24.5Z" fill="black"/>
<path d="M90.5 24.5H87.5V27.5H90.5V24.5Z" fill="black"/>
<path d="M93.5 24.5H90.5V27.5H93.5V24.5Z" fill="black"/>
<path d="M39.5 27.5H36.5V30.5H39.5V27.5Z" fill="black"/>
<path d="M42.5 27.5H39.5V30.5H42.5V27.5Z" fill="black"/>
<path d="M51.5 27.5H48.5V30.5H51.5V27.5Z" fill="black"/>
<path d="M54.5 27.5H51.5V30.5H54.5V27.5Z" fill="black"/>
<path d="M57.5 27.5H54.5V30.5H57.5V27.5Z" fill="black"/>
<path d="M63.5 27.5H60.5V30.5H63.5V27.5Z" fill="black"/>
<path d="M66.5 27.5H63.5V30.5H66.5V27.5Z" fill="black"/>
<path d="M69.5 27.5H66.5V30.5H69.5V27.5Z" fill="black"/>
<path d="M9.5 30.5H6.5V33.5H9.5V30.5Z" fill="black"/>
<path d="M12.5 30.5H9.5V33.5H12.5V30.5Z" fill="black"/>
<path d="M24.5 30.5H21.5V33.5H24.5V30.5Z" fill="black"/>
<path d="M27.5 30.5H24.5V33.5H27.5V30.5Z" fill="black"/>
<path d="M30.5 30.5H27.5V33.5H30.5V30.5Z" fill="black"/>
<path d="M36.5 30.5H33.5V33.5H36.5V30.5Z" fill="black"/>
<path d="M42.5 30.5H39.5V33.5H42.5V30.5Z" fill="black"/>
<path d="M60.5 30.5H57.5V33.5H60.5V30.5Z" fill="black"/>
<path d="M66.5 30.5H63.5V33.5H66.5V30.5Z" fill="black"/>
<path d="M81.5 30.5H78.5V33.5H81.5V30.5Z" fill="black"/>
<path d="M84.5 30.5H81.5V33.5H84.5V30.5Z" fill="black"/>
<path d="M9.5 33.5H6.5V36.5H9.5V33.5Z" fill="black"/>
<path d="M21.5 33.5H18.5V36.5H21.5V33.5Z" fill="black"/>
<path d="M30.5 33.5H27.5V36.5H30.5V33.5Z" fill="black"/>
<path d="M33.5 33.5H30.5V36.5H33.5V33.5Z" fill="black"/>
<path d="M36.5 33.5H33.5V36.5H36.5V33.5Z" fill="black"/>
<path d="M45.5 33.5H42.5V36.5H45.5V33.5Z" fill="black"/>
<path d="M48.5 33.5H45.5V36.5H48.5V33.5Z" fill="black"/>
<path d="M57.5 33.5H54.5V36.5H57.5V33.5Z" fill="black"/>
<path d="M60.5 33.5H57.5V36.5H60.5V33.5Z" fill="black"/>
<path d="M63.5 33.5H60.5V36.5H63.5V33.5Z" fill="black"/>
<path d="M66.5 33.5H63.5V36.5H66.5V33.5Z" fill="black"/>
<path d="M78.5 33.5H75.5V36.5H78.5V33.5Z" fill="black"/>
<path d="M81.5 33.5H78.5V36.5H81.5V33.5Z" fill="black"/>
<path d="M87.5 33.5H84.5V36.5H87.5V33.5Z" fill="black"/>
<path d="M90.5 33.5H87.5V36.5H90.5V33.5Z" fill="black"/>
<path d="M9.5 36.5H6.5V39.5H9.5V36.5Z" fill="black"/>
<path d="M18.5 36.5H15.5V39.5H18.5V36.5Z" fill="black"/>
<path d="M27.5 36.5H24.5V39.5H27.5V36.5Z" fill="black"/>
<path d="M33.5 36.5H30.5V39.5H33.5V36.5Z" fill="black"/>
<path d="M39.5 36.5H36.5V39.5H39.5V36.5Z" fill="black"/>
<path d="M48.5 36.5H45.5V39.5H48.5V36.5Z" fill="black"/>
<path d="M51.5 36.5H48.5V39.5H51.5V36.5Z" fill="black"/>
<path d="M54.5 36.5H51.5V39.5H54.5V36.5Z" fill="black"/>
<path d="M60.5 36.5H57.5V39.5H60.5V36.5Z" fill="black"/>
<path d="M69.5 36.5H66.5V39.5H69.5V36.5Z" fill="black"/>
<path d="M9.5 39.5H6.5V42.5H9.5V39.5Z" fill="black"/>
<path d="M12.5 39.5H9.5V42.5H12.5V39.5Z" fill="black"/>
<path d="M15.5 39.5H12.5V42.5H15.5V39.5Z" fill="black"/>
<path d="M21.5 39.5H18.5V42.5H21.5V39.5Z" fill="black"/>
<path d="M24.5 39.5H21.5V42.5H24.5V39.5Z" fill="black"/>
<path d="M30.5 39.5H27.5V42.5H30.5V39.5Z" fill="black"/>
<path d="M33.5 39.5H30.5V42.5H33.5V39.5Z" fill="black"/>
<path d="M36.5 39.5H33.5V42.5H36.5V39.5Z" fill="black"/>
<path d="M45.5 39.5H42.5V42.5H45.5V39.5Z" fill="black"/>
<path d="M48.5 39.5H45.5V42.5H48.5V39.5Z" fill="black"/>
<path d="M57.5 39.5H54.5V42.5H57.5V39.5Z" fill="black"/>
<path d="M63.5 39.5H60.5V42.5H63.5V39.5Z" fill="black"/>
<path d="M72.5 39.5H69.5V42.5H72.5V39.5Z" fill="black"/>
<path d="M75.5 39.5H72.5V42.5H75.5V39.5Z" fill="black"/>
<path d="M78.5 39.5H75.5V42.5H78.5V39.5Z" fill="black"/>
<path d="M84.5 39.5H81.5V42.5H84.5V39.5Z" fill="black"/>
<path d="M18.5 42.5H15.5V45.5H18.5V42.5Z" fill="black"/>
<path d="M21.5 42.5H18.5V45.5H21.5V42.5Z" fill="black"/>
<path d="M24.5 42.5H21.5V45.5H24.5V42.5Z" fill="black"/>
<path d="M27.5 42.5H24.5V45.5H27.5V42.5Z" fill="black"/>
<path d="M30.5 42.5H27.5V45.5H30.5V42.5Z" fill="black"/>
<path d="M33.5 42.5H30.5V45.5H33.5V42.5Z" fill="black"/>
<path d="M36.5 42.5H33.5V45.5H36.5V42.5Z" fill="black"/>
<path d="M42.5 42.5H39.5V45.5H42.5V42.5Z" fill="black"/>
<path d="M45.5 42.5H42.5V45.5H45.5V42.5Z" fill="black"/>
<path d="M48.5 42.5H45.5V45.5H48.5V42.5Z" fill="black"/>
<path d="M54.5 42.5H51.5V45.5H54.5V42.5Z" fill="black"/>
<path d="M57.5 42.5H54.5V45.5H57.5V42.5Z" fill="black"/>
<path d="M63.5 42.5H60.5V45.5H63.5V42.5Z" fill="black"/>
<path d="M69.5 42.5H66.5V45.5H69.5V42.5Z" fill="black"/>
<path d="M75.5 42.5H72.5V45.5H75.5V42.5Z" fill="black"/>
<path d="M78.5 42.5H75.5V45.5H78.5V42.5Z" fill="black"/>
<path d="M93.5 42.5H90.5V45.5H93.5V42.5Z" fill="black"/>
<path d="M21.5 45.5H18.5V48.5H21.5V45.5Z" fill="black"/>
<path d="M30.5 45.5H27.5V48.5H30.5V45.5Z" fill="black"/>
<path d="M33.5 45.5H30.5V48.5H33.5V45.5Z" fill="black"/>
<path d="M54.5 45.5H51.5V48.5H54.5V45.5Z" fill="black"/>
<path d="M57.5 45.5H54.5V48.5H57.5V45.5Z" fill="black"/>
<path d="M60.5 45.5H57.5V48.5H60.5V45.5Z" fill="black"/>
<path d="M63.5 45.5H60.5V48.5H63.5V45.5Z" fill="black"/>
<path d="M66.5 45.5H63.5V48.5H66.5V45.5Z" fill="black"/>
<path d="M69.5 45.5H66.5V48.5H69.5V45.5Z" fill="black"/>
<path d="M75.5 45.5H72.5V48.5H75.5V45.5Z" fill="black"/>
<path d="M81.5 45.5H78.5V48.5H81.5V45.5Z" fill="black"/>
<path d="M90.5 45.5H87.5V48.5H90.5V45.5Z" fill="black"/>
<path d="M93.5 45.5H90.5V48.5H93.5V45.5Z" fill="black"/>
<path d="M9.5 48.5H6.5V51.5H9.5V48.5Z" fill="black"/>
<path d="M12.5 48.5H9.5V51.5H12.5V48.5Z" fill="black"/>
<path d="M15.5 48.5H12.5V51.5H15.5V48.5Z" fill="black"/>
<path d="M21.5 48.5H18.5V51.5H21.5V48.5Z" fill="black"/>
<path d="M27.5 48.5H24.5V51.5H27.5V48.5Z" fill="black"/>
<path d="M36.5 48.5H33.5V51.5H36.5V48.5Z" fill="black"/>
<path d="M39.5 48.5H36.5V51.5H39.5V48.5Z" fill="black"/>
<path d="M42.5 48.5H39.5V51.5H42.5V48.5Z" fill="black"/>
<path d="M45.5 48.5H42.5V51.5H45.5V48.5Z" fill="black"/>
<path d="M54.5 48.5H51.5V51.5H54.5V48.5Z" fill="black"/>
<path d="M57.5 48.5H54.5V51.5H57.5V48.5Z" fill="black"/>
<path d="M60.5 48.5H57.5V51.5H60.5V48.5Z" fill="black"/>
<path d="M69.5 48.5H66.5V51.5H69.5V48.5Z" fill="black"/>
<path d="M72.5 48.5H69.5V51.5H72.5V48.5Z" fill="black"/>
<path d="M78.5 48.5H75.5V51.5H78.5V48.5Z" fill="black"/>
<path d="M84.5 48.5H81.5V51.5H84.5V48.5Z" fill="black"/>
<path d="M87.5 48.5H84.5V51.5H87.5V48.5Z" fill="black"/>
<path d="M18.5 51.5H15.5V54.5H18.5V51.5Z" fill="black"/>
<path d="M24.5 51.5H21.5V54.5H24.5V51.5Z" fill="black"/>
<path d="M39.5 51.5H36.5V54.5H39.5V51.5Z" fill="black"/>
<path d="M42.5 51.5H39.5V54.5H42.5V51.5Z" fill="black"/>
<path d="M57.5 51.5H54.5V54.5H57.5V51.5Z" fill="black"/>
<path d="M66.5 51.5H63.5V54.5H66.5V51.5Z" fill="black"/>
<path d="M69.5 51.5H66.5V54.5H69.5V51.5Z" fill="black"/>
<path d="M72.5 51.5H69.5V54.5H72.5V51.5Z" fill="black"/>
<path d="M75.5 51.5H72.5V54.5H75.5V51.5Z" fill="black"/>
<path d="M78.5 51.5H75.5V54.5H78.5V51.5Z" fill="black"/>
<path d="M81.5 51.5H78.5V54.5H81.5V51.5Z" fill="black"/>
<path d="M87.5 51.5H84.5V54.5H87.5V51.5Z" fill="black"/>
<path d="M93.5 51.5H90.5V54.5H93.5V51.5Z" fill="black"/>
<path d="M12.5 54.5H9.5V57.5H12.5V54.5Z" fill="black"/>
<path d="M15.5 54.5H12.5V57.5H15.5V54.5Z" fill="black"/>
<path d="M18.5 54.5H15.5V57.5H18.5V54.5Z" fill="black"/>
<path d="M21.5 54.5H18.5V57.5H21.5V54.5Z" fill="black"/>
<path d="M24.5 54.5H21.5V57.5H24.5V54.5Z" fill="black"/>
<path d="M27.5 54.5H24.5V57.5H27.5V54.5Z" fill="black"/>
<path d="M42.5 54.5H39.5V57.5H42.5V54.5Z" fill="black"/>
<path d="M54.5 54.5H51.5V57.5H54.5V54.5Z" fill="black"/>
<path d="M60.5 54.5H57.5V57.5H60.5V54.5Z" fill="black"/>
<path d="M78.5 54.5H75.5V57.5H78.5V54.5Z" fill="black"/>
<path d="M84.5 54.5H81.5V57.5H84.5V54.5Z" fill="black"/>
<path d="M87.5 54.5H84.5V57.5H87.5V54.5Z" fill="black"/>
<path d="M9.5 57.5H6.5V60.5H9.5V57.5Z" fill="black"/>
<path d="M21.5 57.5H18.5V60.5H21.5V57.5Z" fill="black"/>
<path d="M24.5 57.5H21.5V60.5H24.5V57.5Z" fill="black"/>
<path d="M30.5 57.5H27.5V60.5H30.5V57.5Z" fill="black"/>
<path d="M33.5 57.5H30.5V60.5H33.5V57.5Z" fill="black"/>
<path d="M39.5 57.5H36.5V60.5H39.5V57.5Z" fill="black"/>
<path d="M45.5 57.5H42.5V60.5H45.5V57.5Z" fill="black"/>
<path d="M48.5 57.5H45.5V60.5H48.5V57.5Z" fill="black"/>
<path d="M51.5 57.5H48.5V60.5H51.5V57.5Z" fill="black"/>
<path d="M54.5 57.5H51.5V60.5H54.5V57.5Z" fill="black"/>
<path d="M57.5 57.5H54.5V60.5H57.5V57.5Z" fill="black"/>
<path d="M63.5 57.5H60.5V60.5H63.5V57.5Z" fill="black"/>
<path d="M66.5 57.5H63.5V60.5H66.5V57.5Z" fill="black"/>
<path d="M69.5 57.5H66.5V60.5H69.5V57.5Z" fill="black"/>
<path d="M75.5 57.5H72.5V60.5H75.5V57.5Z" fill="black"/>
<path d="M78.5 57.5H75.5V60.5H78.5V57.5Z" fill="black"/>
<path d="M81.5 57.5H78.5V60.5H81.5V57.5Z" fill="black"/>
<path d="M87.5 57.5H84.5V60.5H87.5V57.5Z" fill="black"/>
<path d="M90.5 57.5H87.5V60.5H90.5V57.5Z" fill="black"/>
<path d="M93.5 57.5H90.5V60.5H93.5V57.5Z" fill="black"/>
<path d="M9.5 60.5H6.5V63.5H9.5V60.5Z" fill="black"/>
<path d="M12.5 60.5H9.5V63.5H12.5V60.5Z" fill="black"/>
<path d="M15.5 60.5H12.5V63.5H15.5V60.5Z" fill="black"/>
<path d="M27.5 60.5H24.5V63.5H27.5V60.5Z" fill="black"/>
<path d="M30.5 60.5H27.5V63.5H30.5V60.5Z" fill="black"/>
<path d="M33.5 60.5H30.5V63.5H33.5V60.5Z" fill="black"/>
<path d="M36.5 60.5H33.5V63.5H36.5V60.5Z" fill="black"/>
<path d="M39.5 60.5H36.5V63.5H39.5V60.5Z" fill="black"/>
<path d="M42.5 60.5H39.5V63.5H42.5V60.5Z" fill="black"/>
<path d="M54.5 60.5H51.5V63.5H54.5V60.5Z" fill="black"/>
<path d="M60.5 60.5H57.5V63.5H60.5V60.5Z" fill="black"/>
<path d="M66.5 60.5H63.5V63.5H66.5V60.5Z" fill="black"/>
<path d="M84.5 60.5H81.5V63.5H84.5V60.5Z" fill="black"/>
<path d="M93.5 60.5H90.5V63.5H93.5V60.5Z" fill="black"/>
<path d="M9.5 63.5H6.5V66.5H9.5V63.5Z" fill="black"/>
<path d="M18.5 63.5H15.5V66.5H18.5V63.5Z" fill="black"/>
<path d="M21.5 63.5H18.5V66.5H21.5V63.5Z" fill="black"/>
<path d="M24.5 63.5H21.5V66.5H24.5V63.5Z" fill="black"/>
<path d="M33.5 63.5H30.5V66.5H33.5V63.5Z" fill="black"/>
<path d="M45.5 63.5H42.5V66.5H45.5V63.5Z" fill="black"/>
<path d="M48.5 63.5H45.5V66.5H48.5V63.5Z" fill="black"/>
<path d="M54.5 63.5H51.5V66.5H54.5V63.5Z" fill="black"/>
<path d="M57.5 63.5H54.5V66.5H57.5V63.5Z" fill="black"/>
<path d="M63.5 63.5H60.5V66.5H63.5V63.5Z" fill="black"/>
<path d="M78.5 63.5H75.5V66.5H78.5V63.5Z" fill="black"/>
<path d="M81.5 63.5H78.5V66.5H81.5V63.5Z" fill="black"/>
<path d="M9.5 66.5H6.5V69.5H9.5V66.5Z" fill="black"/>
<path d="M15.5 66.5H12.5V69.5H15.5V66.5Z" fill="black"/>
<path d="M27.5 66.5H24.5V69.5H27.5V66.5Z" fill="black"/>
<path d="M30.5 66.5H27.5V69.5H30.5V66.5Z" fill="black"/>
<path d="M39.5 66.5H36.5V69.5H39.5V66.5Z" fill="black"/>
<path d="M45.5 66.5H42.5V69.5H45.5V66.5Z" fill="black"/>
<path d="M51.5 66.5H48.5V69.5H51.5V66.5Z" fill="black"/>
<path d="M60.5 66.5H57.5V69.5H60.5V66.5Z" fill="black"/>
<path d="M66.5 66.5H63.5V69.5H66.5V66.5Z" fill="black"/>
<path d="M69.5 66.5H66.5V69.5H69.5V66.5Z" fill="black"/>
<path d="M72.5 66.5H69.5V69.5H72.5V66.5Z" fill="black"/>
<path d="M75.5 66.5H72.5V69.5H75.5V66.5Z" fill="black"/>
<path d="M78.5 66.5H75.5V69.5H78.5V66.5Z" fill="black"/>
<path d="M81.5 66.5H78.5V69.5H81.5V66.5Z" fill="black"/>
<path d="M87.5 66.5H84.5V69.5H87.5V66.5Z" fill="black"/>
<path d="M90.5 66.5H87.5V69.5H90.5V66.5Z" fill="black"/>
<path d="M93.5 66.5H90.5V69.5H93.5V66.5Z" fill="black"/>
<path d="M33.5 69.5H30.5V72.5H33.5V69.5Z" fill="black"/>
<path d="M36.5 69.5H33.5V72.5H36.5V69.5Z" fill="black"/>
<path d="M39.5 69.5H36.5V72.5H39.5V69.5Z" fill="black"/>
<path d="M51.5 69.5H48.5V72.5H51.5V69.5Z" fill="black"/>
<path d="M54.5 69.5H51.5V72.5H54.5V69.5Z" fill="black"/>
<path d="M60.5 69.5H57.5V72.5H60.5V69.5Z" fill="black"/>
<path d="M63.5 69.5H60.5V72.5H63.5V69.5Z" fill="black"/>
<path d="M66.5 69.5H63.5V72.5H66.5V69.5Z" fill="black"/>
<path d="M69.5 69.5H66.5V72.5H69.5V69.5Z" fill="black"/>
<path d="M81.5 69.5H78.5V72.5H81.5V69.5Z" fill="black"/>
<path d="M84.5 69.5H81.5V72.5H84.5V69.5Z" fill="black"/>
<path d="M9.5 72.5H6.5V75.5H9.5V72.5Z" fill="black"/>
<path d="M12.5 72.5H9.5V75.5H12.5V72.5Z" fill="black"/>
<path d="M15.5 72.5H12.5V75.5H15.5V72.5Z" fill="black"/>
<path d="M18.5 72.5H15.5V75.5H18.5V72.5Z" fill="black"/>
<path d="M21.5 72.5H18.5V75.5H21.5V72.5Z" fill="black"/>
<path d="M24.5 72.5H21.5V75.5H24.5V72.5Z" fill="black"/>
<path d="M27.5 72.5H24.5V75.5H27.5V72.5Z" fill="black"/>
<path d="M33.5 72.5H30.5V75.5H33.5V72.5Z" fill="black"/>
<path d="M39.5 72.5H36.5V75.5H39.5V72.5Z" fill="black"/>
<path d="M42.5 72.5H39.5V75.5H42.5V72.5Z" fill="black"/>
<path d="M45.5 72.5H42.5V75.5H45.5V72.5Z" fill="black"/>
<path d="M54.5 72.5H51.5V75.5H54.5V72.5Z" fill="black"/>
<path d="M60.5 72.5H57.5V75.5H60.5V72.5Z" fill="black"/>
<path d="M66.5 72.5H63.5V75.5H66.5V72.5Z" fill="black"/>
<path d="M69.5 72.5H66.5V75.5H69.5V72.5Z" fill="black"/>
<path d="M75.5 72.5H72.5V75.5H75.5V72.5Z" fill="black"/>
<path d="M81.5 72.5H78.5V75.5H81.5V72.5Z" fill="black"/>
<path d="M84.5 72.5H81.5V75.5H84.5V72.5Z" fill="black"/>
<path d="M87.5 72.5H84.5V75.5H87.5V72.5Z" fill="black"/>
<path d="M9.5 75.5H6.5V78.5H9.5V75.5Z" fill="black"/>
<path d="M27.5 75.5H24.5V78.5H27.5V75.5Z" fill="black"/>
<path d="M33.5 75.5H30.5V78.5H33.5V75.5Z" fill="black"/>
<path d="M36.5 75.5H33.5V78.5H36.5V75.5Z" fill="black"/>
<path d="M39.5 75.5H36.5V78.5H39.5V75.5Z" fill="black"/>
<path d="M42.5 75.5H39.5V78.5H42.5V75.5Z" fill="black"/>
<path d="M51.5 75.5H48.5V78.5H51.5V75.5Z" fill="black"/>
<path d="M57.5 75.5H54.5V78.5H57.5V75.5Z" fill="black"/>
<path d="M66.5 75.5H63.5V78.5H66.5V75.5Z" fill="black"/>
<path d="M69.5 75.5H66.5V78.5H69.5V75.5Z" fill="black"/>
<path d="M81.5 75.5H78.5V78.5H81.5V75.5Z" fill="black"/>
<path d="M93.5 75.5H90.5V78.5H93.5V75.5Z" fill="black"/>
<path d="M9.5 78.5H6.5V81.5H9.5V78.5Z" fill="black"/>
<path d="M15.5 78.5H12.5V81.5H15.5V78.5Z" fill="black"/>
<path d="M18.5 78.5H15.5V81.5H18.5V78.5Z" fill="black"/>
<path d="M21.5 78.5H18.5V81.5H21.5V78.5Z" fill="black"/>
<path d="M27.5 78.5H24.5V81.5H27.5V78.5Z" fill="black"/>
<path d="M39.5 78.5H36.5V81.5H39.5V78.5Z" fill="black"/>
<path d="M48.5 78.5H45.5V81.5H48.5V78.5Z" fill="black"/>
<path d="M51.5 78.5H48.5V81.5H51.5V78.5Z" fill="black"/>
<path d="M57.5 78.5H54.5V81.5H57.5V78.5Z" fill="black"/>
<path d="M66.5 78.5H63.5V81.5H66.5V78.5Z" fill="black"/>
<path d="M69.5 78.5H66.5V81.5H69.5V78.5Z" fill="black"/>
<path d="M72.5 78.5H69.5V81.5H72.5V78.5Z" fill="black"/>
<path d="M75.5 78.5H72.5V81.5H75.5V78.5Z" fill="black"/>
<path d="M78.5 78.5H75.5V81.5H78.5V78.5Z" fill="black"/>
<path d="M81.5 78.5H78.5V81.5H81.5V78.5Z" fill="black"/>
<path d="M84.5 78.5H81.5V81.5H84.5V78.5Z" fill="black"/>
<path d="M90.5 78.5H87.5V81.5H90.5V78.5Z" fill="black"/>
<path d="M93.5 78.5H90.5V81.5H93.5V78.5Z" fill="black"/>
<path d="M9.5 81.5H6.5V84.5H9.5V81.5Z" fill="black"/>
<path d="M15.5 81.5H12.5V84.5H15.5V81.5Z" fill="black"/>
<path d="M18.5 81.5H15.5V84.5H18.5V81.5Z" fill="black"/>
<path d="M21.5 81.5H18.5V84.5H21.5V81.5Z" fill="black"/>
<path d="M27.5 81.5H24.5V84.5H27.5V81.5Z" fill="black"/>
<path d="M36.5 81.5H33.5V84.5H36.5V81.5Z" fill="black"/>
<path d="M45.5 81.5H42.5V84.5H45.5V81.5Z" fill="black"/>
<path d="M48.5 81.5H45.5V84.5H48.5V81.5Z" fill="black"/>
<path d="M51.5 81.5H48.5V84.5H51.5V81.5Z" fill="black"/>
<path d="M54.5 81.5H51.5V84.5H54.5V81.5Z" fill="black"/>
<path d="M57.5 81.5H54.5V84.5H57.5V81.5Z" fill="black"/>
<path d="M72.5 81.5H69.5V84.5H72.5V81.5Z" fill="black"/>
<path d="M78.5 81.5H75.5V84.5H78.5V81.5Z" fill="black"/>
<path d="M84.5 81.5H81.5V84.5H84.5V81.5Z" fill="black"/>
<path d="M87.5 81.5H84.5V84.5H87.5V81.5Z" fill="black"/>
<path d="M93.5 81.5H90.5V84.5H93.5V81.5Z" fill="black"/>
<path d="M9.5 84.5H6.5V87.5H9.5V84.5Z" fill="black"/>
<path d="M15.5 84.5H12.5V87.5H15.5V84.5Z" fill="black"/>
<path d="M18.5 84.5H15.5V87.5H18.5V84.5Z" fill="black"/>
<path d="M21.5 84.5H18.5V87.5H21.5V84.5Z" fill="black"/>
<path d="M27.5 84.5H24.5V87.5H27.5V84.5Z" fill="black"/>
<path d="M36.5 84.5H33.5V87.5H36.5V84.5Z" fill="black"/>
<path d="M39.5 84.5H36.5V87.5H39.5V84.5Z" fill="black"/>
<path d="M48.5 84.5H45.5V87.5H48.5V84.5Z" fill="black"/>
<path d="M51.5 84.5H48.5V87.5H51.5V84.5Z" fill="black"/>
<path d="M54.5 84.5H51.5V87.5H54.5V84.5Z" fill="black"/>
<path d="M60.5 84.5H57.5V87.5H60.5V84.5Z" fill="black"/>
<path d="M69.5 84.5H66.5V87.5H69.5V84.5Z" fill="black"/>
<path d="M72.5 84.5H69.5V87.5H72.5V84.5Z" fill="black"/>
<path d="M75.5 84.5H72.5V87.5H75.5V84.5Z" fill="black"/>
<path d="M78.5 84.5H75.5V87.5H78.5V84.5Z" fill="black"/>
<path d="M81.5 84.5H78.5V87.5H81.5V84.5Z" fill="black"/>
<path d="M84.5 84.5H81.5V87.5H84.5V84.5Z" fill="black"/>
<path d="M87.5 84.5H84.5V87.5H87.5V84.5Z" fill="black"/>
<path d="M90.5 84.5H87.5V87.5H90.5V84.5Z" fill="black"/>
<path d="M9.5 87.5H6.5V90.5H9.5V87.5Z" fill="black"/>
<path d="M27.5 87.5H24.5V90.5H27.5V87.5Z" fill="black"/>
<path d="M33.5 87.5H30.5V90.5H33.5V87.5Z" fill="black"/>
<path d="M45.5 87.5H42.5V90.5H45.5V87.5Z" fill="black"/>
<path d="M48.5 87.5H45.5V90.5H48.5V87.5Z" fill="black"/>
<path d="M51.5 87.5H48.5V90.5H51.5V87.5Z" fill="black"/>
<path d="M54.5 87.5H51.5V90.5H54.5V87.5Z" fill="black"/>
<path d="M66.5 87.5H63.5V90.5H66.5V87.5Z" fill="black"/>
<path d="M75.5 87.5H72.5V90.5H75.5V87.5Z" fill="black"/>
<path d="M78.5 87.5H75.5V90.5H78.5V87.5Z" fill="black"/>
<path d="M84.5 87.5H81.5V90.5H84.5V87.5Z" fill="black"/>
<path d="M87.5 87.5H84.5V90.5H87.5V87.5Z" fill="black"/>
<path d="M93.5 87.5H90.5V90.5H93.5V87.5Z" fill="black"/>
<path d="M9.5 90.5H6.5V93.5H9.5V90.5Z" fill="black"/>
<path d="M12.5 90.5H9.5V93.5H12.5V90.5Z" fill="black"/>
<path d="M15.5 90.5H12.5V93.5H15.5V90.5Z" fill="black"/>
<path d="M18.5 90.5H15.5V93.5H18.5V90.5Z" fill="black"/>
<path d="M21.5 90.5H18.5V93.5H21.5V90.5Z" fill="black"/>
<path d="M24.5 90.5H21.5V93.5H24.5V90.5Z" fill="black"/>
<path d="M27.5 90.5H24.5V93.5H27.5V90.5Z" fill="black"/>
<path d="M33.5 90.5H30.5V93.5H33.5V90.5Z" fill="black"/>
<path d="M45.5 90.5H42.5V93.5H45.5V90.5Z" fill="black"/>
<path d="M51.5 90.5H48.5V93.5H51.5V90.5Z" fill="black"/>
<path d="M60.5 90.5H57.5V93.5H60.5V90.5Z" fill="black"/>
<path d="M66.5 90.5H63.5V93.5H66.5V90.5Z" fill="black"/>
<path d="M78.5 90.5H75.5V93.5H78.5V90.5Z" fill="black"/>
<path d="M81.5 90.5H78.5V93.5H81.5V90.5Z" fill="black"/>
<path d="M84.5 90.5H81.5V93.5H84.5V90.5Z" fill="black"/>
<path d="M87.5 90.5H84.5V93.5H87.5V90.5Z" fill="black"/>
</svg>
